<svg width="59" height="19" viewBox="0 0 59 19" fill="none" xmlns="http://www.w3.org/2000/svg">
<path d="M7.72109 18.752C5.68207 18.6459 4.37242 18.5875 3.79212 18.5769C3.43566 18.5769 2.17162 18.6353 0 18.752V17.638C1.06088 17.638 1.69316 17.4062 1.89685 16.9425C2.10054 16.4789 2.20186 15.7362 2.2008 14.7146V4.2971C2.2008 3.53427 2.07455 2.99584 1.82206 2.6818C1.56957 2.36776 1.02004 2.20862 0.173454 2.20437V1.09038C2.82671 1.21239 5.13943 1.27339 7.11161 1.27339C9.12728 1.27339 11.2782 1.21557 13.5644 1.09993C13.6472 2.37306 13.9251 3.45895 14.3983 4.35757L13.391 4.86682C13.0345 4.07111 12.5184 3.52419 11.8426 3.22607C11.1668 2.92794 10.0253 2.77676 8.41808 2.77251C7.72957 2.77251 6.73447 2.79744 5.43277 2.84731V9.03954H7.34235C8.32101 9.03954 8.99096 8.92177 9.35696 8.68624C9.72297 8.45071 9.92029 8.03694 9.95371 7.44811L10.961 7.49904C10.8326 8.73398 10.7679 9.70369 10.7669 10.4082L10.8544 12.5964L9.84709 12.6457V12.434C9.84709 11.6553 9.64181 11.1662 9.23125 10.9668C8.82069 10.7673 8.19742 10.666 7.36145 10.6628H5.43277V14.8466C5.43277 15.9829 5.53885 16.7293 5.75103 17.0858C5.96321 17.4423 6.61777 17.6242 7.71472 17.6316L7.72109 18.752Z" fill="white"/>
<path d="M20.3005 18.752C18.7919 18.6522 17.6562 18.6024 16.8935 18.6024C16.2633 18.6024 15.1854 18.6522 13.6599 18.752V17.638C14.5638 17.638 15.1048 17.4597 15.283 17.1032C15.4613 16.7468 15.5504 16.1542 15.5504 15.3256V8.53025L13.5119 8.60504L14.3076 6.71443H15.5504V5.07368C15.5504 3.58092 16.0936 2.36083 17.1799 1.4134C18.2662 0.465976 19.447 -0.00508496 20.7222 0.000219781C21.5189 0.000219781 22.1782 0.174215 22.7002 0.522207C22.9404 0.665148 23.139 0.868426 23.2763 1.11186C23.4137 1.3553 23.485 1.63042 23.4831 1.90993C23.4004 2.75869 22.8699 3.39526 21.8918 3.81963C21.7422 2.33431 21.1619 1.59164 20.1509 1.59164C19.0232 1.6744 18.4593 2.46215 18.4593 3.95491V6.71443L21.3698 6.56484L20.797 8.63369L18.4593 8.53025V15.2954C18.4763 16.1739 18.5718 16.7828 18.7458 17.1223C18.9197 17.4618 19.438 17.6316 20.3005 17.6316V18.752Z" fill="white"/>
<path d="M27.6889 19.0003C25.9396 19.0003 24.5116 18.4448 23.4051 17.334C22.2986 16.2232 21.7454 14.7724 21.7454 12.9815C21.7454 11.1418 22.3257 9.59601 23.4863 8.34409C24.6469 7.09217 26.218 6.46621 28.1998 6.46621C30.9432 6.46621 32.6836 8.16956 33.4209 11.5763L25.0155 13.5162C25.0155 14.2589 25.3577 15.0694 26.0419 15.9479C26.7262 16.8264 27.7229 17.2635 29.032 17.2592C30.4419 17.2592 31.6481 16.5834 32.6507 15.2318L33.5084 15.9033C32.1579 17.968 30.2181 19.0003 27.6889 19.0003ZM24.8914 12.3847L28.5976 11.5524C29.7741 11.2776 30.3624 10.7509 30.3624 9.97211C30.3624 8.48679 29.5582 7.74412 27.9499 7.74412C25.912 7.74624 24.8925 9.29311 24.8914 12.3847Z" fill="white"/>
<path d="M39.5332 18.752C38.8043 18.6852 37.8967 18.6517 36.8104 18.6517C35.7241 18.6517 34.8223 18.6852 34.1052 18.752V17.638C35.0175 17.638 35.4732 17.3149 35.4721 16.6688V9.79865C35.4721 8.72921 35.07 8.1945 34.2659 8.1945V7.19986C35.6774 6.90495 37.0169 6.33441 38.2076 5.5209L38.1917 9.70794C39.3194 7.29534 40.6046 6.08957 42.0474 6.09063C43.73 6.09063 44.6084 6.70811 44.6827 7.94305C44.6827 9.03689 44.4339 9.7578 43.9363 10.1058C43.564 9.13609 42.9009 8.65123 41.9472 8.65123C40.6221 8.66821 39.3703 9.62306 38.1917 11.5158V16.6625C38.1917 17.3086 38.6394 17.6316 39.5347 17.6316L39.5332 18.752Z" fill="white"/>
<path d="M58.96 18.752C58.1728 18.6777 57.1989 18.6401 56.0383 18.639C54.6953 18.639 53.6344 18.6767 52.8557 18.752V17.638C53.8423 17.638 54.3484 17.2942 54.3738 16.6068V10.9556C54.3643 9.23793 53.6747 8.37963 52.3051 8.38069C51.5413 8.38069 50.7037 8.62524 49.7924 9.11433V16.594C49.7924 17.2815 50.2772 17.6253 51.2469 17.6253V18.7393C50.4587 18.665 49.4848 18.6273 48.3252 18.6263C46.9821 18.6263 45.9213 18.6639 45.1426 18.7393V17.6253C46.1218 17.6253 46.6315 17.2815 46.6718 16.594V10.3206C46.6326 9.1695 46.1817 8.59394 45.3192 8.59394V7.59771C47.0601 7.26669 48.5565 6.66566 49.8083 5.79462L49.7956 8.23268C51.7848 7.05503 53.314 6.46621 54.3834 6.46621C54.794 6.45962 55.2017 6.53601 55.582 6.69079C55.9624 6.84557 56.3076 7.07555 56.5969 7.36695C57.2112 7.96851 57.5177 9.16844 57.5167 10.9667V16.6004C57.5167 17.2879 57.9978 17.6316 58.96 17.6316V18.752Z" fill="white"/>
</svg>
